<svg xmlns="http://www.w3.org/2000/svg"><symbol id="icon" viewBox="0 0 12.7 12.7"><g xmlns="http://www.w3.org/2000/svg"><g transform="translate(1.3229167,5.9624614e-6)"><path style="" d="m 4.4992221,1.0583747 a 0.26457696,0.26459203 0 0 0 -0.1038567,0.019119 l -5.02645954,2.1170412 a 0.26457698,0.26459205 0 0 0 -5.1587e-4,5.292e-4 0.26457696,0.26459203 0 0 0 -0.15966038,0.2800675 V 9.258886 a 0.26457698,0.26459205 0 0 0 0.16017707,0.2438963 L 4.3953662,11.619824 a 0.26457698,0.26459205 0 0 0 0.00723,0.0026 0.26457698,0.26459205 0 0 0 0.023251,0.0083 0.26457698,0.26459205 0 0 0 0.012399,0.0026 0.26457698,0.26459205 0 0 0 0.010333,0.0026 0.26457698,0.26459205 0 0 0 0.01395,0.0021 0.26457698,0.26459205 0 0 0 0.014984,0.0016 0.26457698,0.26459205 0 0 0 0.013434,5.29e-4 0.26457698,0.26459205 0 0 0 0.010333,5.3e-4 0.26457698,0.26459205 0 0 0 0.012918,-5.3e-4 0.26457698,0.26459205 0 0 0 0.016019,-0.0016 0.26457698,0.26459205 0 0 0 0.00259,0 0.26457698,0.26459205 0 0 0 0.020151,-0.0036 0.26457698,0.26459205 0 0 0 0.023767,-0.0062 0.26457698,0.26459205 0 0 0 0.024802,-0.0088 L 7.216547,10.518801 c 0.1339901,0.143229 0.2769347,0.276289 0.4169768,0.396332 0.4850187,0.415754 0.9667461,0.691384 0.9667461,0.691384 a 0.26457696,0.26459203 0 0 0 0.2635172,0 c 0,0 0.4817272,-0.27563 0.9667459,-0.691384 0.485014,-0.415804 1.017378,-0.9727069 1.017378,-1.6561681 V 7.1438994 A 0.26457696,0.26459203 0 0 0 10.5844,6.8783004 H 9.789715 V 3.438948 a 0.26457698,0.26459205 0 0 0 0,-0.00156 0.26457696,0.26459203 0 0 0 -0.0041,-0.041855 0.26457698,0.26459205 0 0 0 -0.0026,-0.01602 0.26457696,0.26459203 0 0 0 -0.0052,-0.018602 0.26457698,0.26459205 0 0 0 -0.0021,-0.00672 0.26457696,0.26459203 0 0 0 -0.0067,-0.018086 0.26457698,0.26459205 0 0 0 -10e-4,-0.00206 0.26457696,0.26459203 0 0 0 -0.01085,-0.02222 0.26457698,0.26459205 0 0 0 -0.0031,-0.00568 0.26457696,0.26459203 0 0 0 -0.0047,-0.00723 A 0.26457698,0.26459205 0 0 0 9.739565,3.28393 0.26457696,0.26459203 0 0 0 9.736465,3.28031 0.26457698,0.26459205 0 0 0 9.723035,3.263259 0.26457696,0.26459203 0 0 0 9.709605,3.249306 0.26457698,0.26459205 0 0 0 9.704405,3.244656 0.26457696,0.26459203 0 0 0 9.689425,3.231737 0.26457698,0.26459205 0 0 0 9.684225,3.227597 0.26457696,0.26459203 0 0 0 9.668205,3.216229 0.26457698,0.26459205 0 0 0 9.666105,3.215199 0.26457696,0.26459203 0 0 0 9.627355,3.194528 L 7.2081684,2.1755489 a 0.26457693,0.264592 0 0 0 -0.05167,-0.021703 L 4.6004954,1.0774937 A 0.26457696,0.26459203 0 0 0 4.4992221,1.0583747 Z m 0,0.550317 L 6.3965452,2.4085892 2.0521299,4.237812 0.15584027,3.438948 Z M 7.0785894,2.6958908 8.8420873,3.438948 7.060505,4.1897563 4.4987054,5.2681708 2.8990016,4.5948723 2.7336575,4.5251138 Z M -0.26423699,3.8373465 4.2331216,5.7316775 V 10.977517 L -0.26423699,9.0831857 Z m 9.52485139,0 V 6.8783004 H 6.8796599 a 0.26457696,0.26459203 0 0 0 -0.078022,0.011884 0.26457698,0.26459205 0 0 0 -0.024802,0.00878 0.26457696,0.26459203 0 0 0 -5.291e-4,5.291e-4 0.26457698,0.26459205 0 0 0 -0.011884,0.00568 0.26457696,0.26459203 0 0 0 -0.011884,0.00568 0.26457696,0.26459203 0 0 0 -0.00827,0.00517 0.26457698,0.26459205 0 0 0 -0.054254,0.042889 0.26457698,0.26459205 0 0 0 -0.017569,0.019636 0.26457696,0.26459203 0 0 0 0,5.292e-4 0.26457698,0.26459205 0 0 0 -0.028418,0.043922 0.26457696,0.26459203 0 0 0 0,5.291e-4 0.26457698,0.26459205 0 0 0 -0.028923,0.1193307 v 2.1165246 c 0,0.075196 0.00785,0.1483921 0.022217,0.21961 0.036407,0.216639 0.1244694,0.4185295 0.2423324,0.6066419 l -2.116404,0.891875 V 5.7311605 L 9.1309182,3.89212 Z m -8.6996812,3.358226 a 0.26457698,0.26459205 0 0 0 -0.028418,0.00103 0.26457698,0.26459205 0 0 0 -0.0738881,0.5094954 L 1.4563747,8.1262026 A 0.26481004,0.26482512 0 1 0 1.6615047,7.637893 L 0.6637565,7.2177917 A 0.26457698,0.26459205 0 0 0 0.5609332,7.1955725 Z M 7.1452437,7.4074316 H 9.525165 10.3183 v 1.8514423 c 0,0.3748016 -0.392529,0.8777101 -0.833438,1.2556531 -0.3755917,0.321954 -0.6501398,0.47507 -0.7538653,0.536882 C 8.6266231,10.989189 8.3521736,10.83601 7.9771312,10.514527 7.5933751,10.185575 7.2481203,9.7617236 7.1648784,9.4102755 c -0.00584,-0.026419 -0.00793,-0.051456 -0.010852,-0.076993 -0.0031,-0.024895 -0.00878,-0.050493 -0.00878,-0.074409 z M 9.534982,8.1975112 A 0.26457698,0.26459205 0 0 0 9.508112,8.1980403 0.26457698,0.26459205 0 0 0 9.3127992,8.3075871 L 8.7036115,9.121953 8.3889411,8.8077814 A 0.26457698,0.26459205 0 1 0 8.0158837,9.1824101 L 8.5455013,9.7120583 A 0.26457698,0.26459205 0 0 0 8.9438771,9.6826045 L 9.736495,8.6238254 A 0.26457698,0.26459205 0 0 0 9.534982,8.1975112 Z m -8.9740488,0.056323 a 0.26457698,0.26459205 0 0 0 -0.028418,0.00103 0.26457698,0.26459205 0 0 0 -0.0738881,0.5100121 l 0.9977476,0.4195884 a 0.26481,0.26482508 0 1 0 0.20513,-0.4883095 L 0.6637565,8.2765708 A 0.26457698,0.26459205 0 0 0 0.5609332,8.2538342 Z" fill="currentColor"></path></g></g></symbol></svg>